<?xml version="1.0" standalone="no"?>
<!DOCTYPE svg PUBLIC "-//W3C//DTD SVG 20010904//EN"
 "http://www.w3.org/TR/2001/REC-SVG-20010904/DTD/svg10.dtd">
<svg version="1.0" xmlns="http://www.w3.org/2000/svg"
 width="512.000000pt" height="512.000000pt" viewBox="0 0 512.000000 512.000000"
 preserveAspectRatio="xMidYMid meet">
<metadata>
Created by potrace 1.14, written by Peter Selinger 2001-2017
</metadata>
<g transform="translate(0.000000,512.000000) scale(0.100000,-0.100000)"
fill="#000000" stroke="none">
<path d="M2428 4905 c-2 -2 -43 -6 -93 -9 -49 -4 -99 -9 -110 -11 -11 -2 -39
-6 -62 -9 -71 -9 -272 -56 -373 -88 -292 -92 -586 -249 -827 -440 -169 -134
-386 -367 -511 -549 -215 -310 -371 -705 -422 -1064 -6 -44 -14 -93 -17 -110
-12 -56 -15 -2131 -3 -2174 27 -102 166 -145 249 -76 64 55 60 -10 62 1111 0
560 5 1048 10 1084 4 36 11 90 15 120 3 30 8 58 10 61 2 3 6 21 9 40 13 77 68
265 106 363 112 291 282 550 509 776 250 250 526 422 855 536 70 24 234 69
290 79 167 29 258 38 430 39 531 5 1048 -185 1465 -538 142 -121 314 -319 423
-486 165 -256 296 -600 331 -875 4 -27 10 -66 13 -85 4 -19 8 -507 10 -1085 4
-1164 0 -1089 71 -1143 28 -21 46 -26 92 -27 50 0 63 4 97 31 21 17 43 46 50
65 14 40 17 2024 2 2149 -10 93 -18 147 -24 180 -28 147 -41 202 -72 305 -116
397 -333 765 -628 1061 -236 237 -430 378 -710 514 -219 106 -523 203 -710
225 -11 1 -38 5 -60 8 -93 14 -169 19 -317 22 -87 1 -159 1 -160 0z"/>
<path d="M1087 3093 c-1 0 -15 -3 -32 -6 -155 -27 -283 -160 -303 -314 -4 -32
-7 -236 -6 -453 1 -333 3 -404 17 -450 31 -106 108 -194 212 -242 l50 -23
1515 -2 c1613 -3 1546 -5 1640 43 53 27 128 108 156 167 13 29 27 80 31 113 5
32 8 241 7 464 l-1 405 -32 70 c-47 103 -119 170 -226 210 -48 18 -113 19
-1538 19 -819 1 -1489 0 -1490 -1z m270 -287 c15 -8 147 -134 292 -280 146
-146 268 -266 271 -266 4 0 123 117 266 260 142 144 273 269 289 280 41 25
102 31 145 13 22 -9 135 -114 302 -281 147 -147 271 -268 276 -270 4 -1 129
119 277 268 275 274 307 300 377 300 17 0 50 -11 73 -25 70 -40 98 -128 63
-198 -21 -41 -658 -685 -710 -717 -40 -24 -107 -26 -149 -4 -17 8 -152 136
-300 285 l-269 269 -269 -269 c-148 -149 -283 -277 -300 -285 -42 -22 -109
-20 -148 4 -38 23 -686 668 -702 699 -19 35 -24 100 -10 134 16 39 65 86 99
93 14 3 30 7 35 9 19 5 64 -4 92 -19z"/>
<path d="M1815 1054 c-69 -23 -105 -74 -105 -147 0 -81 47 -138 126 -154 21
-5 356 -8 744 -7 657 0 708 2 743 18 53 26 80 69 85 135 4 66 -20 111 -78 145
-34 21 -48 21 -757 22 -556 1 -729 -2 -758 -12z"/>
</g>
</svg>
